# xmcd
#
# Track frame offsets:
#	150
#	15420
#	40937
#	55502
#	87552
#	106920
#	131914
#	150825
#	169756
#	186474
#
# Disc length: 2645 seconds
#
# Revision: 1
# Processed by: cddbd v1.5.2PL0 Copyright (c) Steve Scherf et al.
# Submitted via: audiograbber 1.83.01
#
DISCID=770a530a
DTITLE=The Hungry Harries - Let's go Kau Kau
DYEAR=2003
DGENRE=Blues
TTITLE0=That's why
TTITLE1=Black crows
TTITLE2=If I found
TTITLE3=Pray
TTITLE4=Low budget
TTITLE5=Daddy knew to use his spoon
TTITLE6=Come to Africa
TTITLE7=Butter beans
TTITLE8=Everybody
TTITLE9=That's what
EXTD=
EXTT0=
EXTT1=
EXTT2=
EXTT3=
EXTT4=
EXTT5=
EXTT6=
EXTT7=
EXTT8=
EXTT9=
PLAYORDER=
